<svg xmlns="http://www.w3.org/2000/svg" xml:space="preserve" width="655.359" height="655.359" style="shape-rendering:geometricPrecision;text-rendering:geometricPrecision;image-rendering:optimizeQuality;fill-rule:evenodd;clip-rule:evenodd" viewBox="0 0 6.827 6.827"><defs><style>.fil0{fill:#607d8b}.fil2{fill:#fffffe;fill-rule:nonzero}</style></defs><g id="Layer_x0020_1"><g id="_464620392"><path id="_464620344" class="fil0" d="M0 0h6.827v6.827H0z"/><path id="_464619888" class="fil0" d="M.853.853h5.12v5.12H.853z"/></g><g id="_464624904"><path id="_464626464" d="M2.709 5.878A1.19 1.19 0 0 1 1.48 5.68c-.16-.148-.259-.354-.224-.574.036-.222.194-.385.393-.476.198-.09.43-.108.642-.074.187.03.374.103.525.22l.54-2.406.034-.15.108.11c.144.145.24.36.339.578.204.454.419.933 1.128.672l.058.158c-.856.314-1.104-.238-1.34-.762a2.998 2.998 0 0 0-.202-.398l-.524 2.334c.272.334.17.775-.248.966zm-.07-.154a1.023 1.023 0 0 1-1.044-.168c-.13-.12-.197-.27-.172-.424.025-.153.136-.275.296-.348a.963.963 0 0 1 .545-.062.964.964 0 0 1 .5.23c.278.258.22.614-.125.772z" style="fill:#fffffe"/><path id="_464625240" class="fil2" d="M.853 2.55h2.354l-.048.213H.853v-.214zm2.93 0h2.19v.213H3.888a3.401 3.401 0 0 0-.105-.214zM.853 5.444h.338c.03.076.072.148.124.213H.853v-.213zm.781 0h1.167a.418.418 0 0 1-.206.182.666.666 0 0 1-.083.031h-.504a.817.817 0 0 1-.374-.213zm1.568 0h2.771v.213H3.12a.67.67 0 0 0 .083-.213zM.853 4.48h.897a.883.883 0 0 0-.385.213H.853V4.48zm1.592 0h.328l-.027.121a1.29 1.29 0 0 0-.3-.121zm.719 0h2.81v.213H3.115l.048-.213zm-2.31-.965H2.99l-.048.213H.853v-.213zm2.526 0h.462c.053.078.112.15.18.213h-.69l.048-.213zm1.038 0h.404a.629.629 0 0 1-.404 0zm.637 0h.918v.213h-.84l-.078-.213z"/></g><path class="fil2" d="M5.66 1.41a.243.243 0 0 0-.451-.127l-.086.139-.085-.139a.246.246 0 0 0-.207-.116.243.243 0 0 0-.16.427l.005.005.447.448.448-.448.005-.005a.247.247 0 0 0 .084-.184zm.07-.313a.442.442 0 0 1-.017.643l-.488.487a.144.144 0 0 1-.203 0l-.488-.487a.445.445 0 0 1 .297-.773.44.44 0 0 1 .292.11.446.446 0 0 1 .293-.11c.123 0 .234.05.314.13zM2.993 1.74a.146.146 0 0 0-.27-.077l-.086.139-.085-.139a.145.145 0 0 0-.125-.07.146.146 0 0 0-.146.147.145.145 0 0 0 .05.11l.006.004.3.301.301-.3.005-.005a.145.145 0 0 0 .05-.11zm.099-.245a.345.345 0 0 1-.013.5l-.348.35a.131.131 0 0 1-.143.028h-.001a.13.13 0 0 1-.042-.028l-.35-.35a.347.347 0 0 1 .233-.602.344.344 0 0 1 .21.071.348.348 0 0 1 .21-.07c.095 0 .181.038.244.1z"/></g></svg>